<svg width="53" height="30" viewBox="0 0 53 30" fill="none" xmlns="http://www.w3.org/2000/svg">
<path d="M14.75 28.75V26.4167C14.75 19.9733 19.9733 14.75 26.4167 14.75M38.0833 28.75V26.4167C38.0833 19.9733 32.86 14.75 26.4167 14.75M26.4167 14.75C30.2827 14.75 33.4167 11.616 33.4167 7.75C33.4167 3.88401 30.2827 0.75 26.4167 0.75C22.5507 0.75 19.4167 3.88401 19.4167 7.75C19.4167 11.616 22.5507 14.75 26.4167 14.75ZM0.75 28.75V26.4167C0.75 22.5507 3.88401 19.4167 7.75 19.4167M7.75 19.4167C10.3273 19.4167 12.4167 17.3273 12.4167 14.75C12.4167 12.1727 10.3273 10.0833 7.75 10.0833C5.17267 10.0833 3.08333 12.1727 3.08333 14.75C3.08333 17.3273 5.17267 19.4167 7.75 19.4167ZM52.0833 28.75V26.4167C52.0833 22.5507 48.9493 19.4167 45.0833 19.4167M45.0833 19.4167C47.6607 19.4167 49.75 17.3273 49.75 14.75C49.75 12.1727 47.6607 10.0833 45.0833 10.0833C42.506 10.0833 40.4167 12.1727 40.4167 14.75C40.4167 17.3273 42.506 19.4167 45.0833 19.4167Z" stroke="#0F172A" stroke-width="1.5" stroke-linecap="round" stroke-linejoin="round"/>
</svg>
