<svg width="49" height="42" viewBox="0 0 49 42" fill="none" xmlns="http://www.w3.org/2000/svg">
<path d="M24.0833 19.4167V31.0833M24.0833 40.44L24.1067 40.4141M5.41667 22.9167V21.75C5.41667 10.152 13.774 0.75 24.0833 0.75C34.3927 0.75 42.75 10.152 42.75 21.75V22.9167M5.41667 22.9167L8.34378 22.185C9.22739 21.9641 10.0833 22.6324 10.0833 23.5432V36.2903C10.0833 37.2011 9.22739 37.8694 8.34378 37.6485L4.28483 36.6338C2.20739 36.1144 0.75 34.2479 0.75 32.1065V27.7271C0.75 25.5857 2.20738 23.7191 4.28483 23.1997L5.41667 22.9167ZM42.75 22.9167L39.8229 22.185C38.9393 21.9641 38.0833 22.6324 38.0833 23.5432V36.2903C38.0833 37.2011 38.9393 37.8694 39.8229 37.6485L43.8818 36.6338C45.9593 36.1144 47.4167 34.2479 47.4167 32.1065V27.7271C47.4167 25.5857 45.9593 23.7191 43.8818 23.1997L42.75 22.9167Z" stroke="#0F172A" stroke-width="1.5" stroke-linecap="round" stroke-linejoin="round"/>
</svg>
