<svg width="44" height="45" viewBox="0 0 44 45" fill="none" xmlns="http://www.w3.org/2000/svg">
<path d="M26.4167 27.7406V9.07393M26.4167 27.7406L40.6554 35.877C41.5887 36.4103 42.75 35.7364 42.75 34.6615V2.15305C42.75 1.07809 41.5887 0.404179 40.6554 0.937505L26.4167 9.07393M26.4167 27.7406H10.0833M26.4167 9.07393H10.0833C4.92868 9.07393 0.75 13.2526 0.75 18.4073C0.75 23.5619 4.92868 27.7406 10.0833 27.7406M10.0833 27.7406L11.85 40.1075C12.1752 42.3834 14.1243 44.0739 16.4234 44.0739C19.2347 44.0739 21.3943 41.5839 20.9967 38.8008L19.4167 27.7406H10.0833Z" stroke="#0F172A" stroke-width="1.5"/>
</svg>
