<svg width="35" height="21" viewBox="0 0 35 21" fill="none" xmlns="http://www.w3.org/2000/svg">
<path d="M14.325 16.5C13.9108 16.5 13.575 16.8358 13.575 17.25C13.575 17.6642 13.9108 18 14.325 18V17.25V16.5ZM0.75 0C0.335786 0 0 0.335786 0 0.75C0 1.16421 0.335786 1.5 0.75 1.5V0.75V0ZM7.725 18C8.13921 18 8.475 17.6642 8.475 17.25C8.475 16.8358 8.13921 16.5 7.725 16.5V17.25V18ZM4.5 9C4.5 8.58579 4.16421 8.25 3.75 8.25C3.33579 8.25 3 8.58579 3 9H3.75H4.5ZM2.25 4.5C1.83579 4.5 1.5 4.83579 1.5 5.25C1.5 5.66421 1.83579 6 2.25 6V5.25V4.5ZM8.25 6C8.66421 6 9 5.66421 9 5.25C9 4.83579 8.66421 4.5 8.25 4.5V5.25V6ZM21.75 4.5C21.3358 4.5 21 4.83579 21 5.25C21 5.66421 21.3358 6 21.75 6V5.25V4.5ZM33.6724 11.8255L34.3578 11.5209V11.5209L33.6724 11.8255ZM30.9875 5.78448L30.3022 6.08908V6.08908L30.9875 5.78448ZM30 16.5C29.5858 16.5 29.25 16.8358 29.25 17.25C29.25 17.6642 29.5858 18 30 18V17.25V16.5ZM14.25 17.25H13.5C13.5 18.4926 12.4926 19.5 11.25 19.5V20.25V21C13.3211 21 15 19.3211 15 17.25H14.25ZM11.25 20.25V19.5C10.0074 19.5 9 18.4926 9 17.25H8.25H7.5C7.5 19.3211 9.17893 21 11.25 21V20.25ZM8.25 17.25H9C9 16.0074 10.0074 15 11.25 15V14.25V13.5C9.17893 13.5 7.5 15.1789 7.5 17.25H8.25ZM11.25 14.25V15C12.4926 15 13.5 16.0074 13.5 17.25H14.25H15C15 15.1789 13.3211 13.5 11.25 13.5V14.25ZM29.25 17.25H28.5C28.5 18.4926 27.4926 19.5 26.25 19.5V20.25V21C28.3211 21 30 19.3211 30 17.25H29.25ZM26.25 20.25V19.5C25.0074 19.5 24 18.4926 24 17.25H23.25H22.5C22.5 19.3211 24.1789 21 26.25 21V20.25ZM23.25 17.25H24C24 16.0074 25.0074 15 26.25 15V14.25V13.5C24.1789 13.5 22.5 15.1789 22.5 17.25H23.25ZM26.25 14.25V15C27.4926 15 28.5 16.0074 28.5 17.25H29.25H30C30 15.1789 28.3211 13.5 26.25 13.5V14.25ZM21.75 17.25H22.5V1.65H21.75H21V17.25H21.75ZM14.325 17.25V18H21.75V17.25V16.5H14.325V17.25ZM20.85 0.75V0H0.75V0.75V1.5H20.85V0.75ZM21.75 1.65H22.5C22.5 0.73873 21.7613 0 20.85 0V0.75V1.5C20.9328 1.5 21 1.56716 21 1.65H21.75ZM4.65 17.25V18H7.725V17.25V16.5H4.65V17.25ZM3.75 9H3V16.35H3.75H4.5V9H3.75ZM4.65 17.25V16.5C4.56716 16.5 4.5 16.4328 4.5 16.35H3.75H3C3 17.2613 3.73873 18 4.65 18V17.25ZM2.25 5.25V6H8.25V5.25V4.5H2.25V5.25ZM30.1651 5.25V4.5H21.75V5.25V6H30.1651V5.25ZM33.75 16.35H34.5V12.191H33.75H33V16.35H33.75ZM33.6724 11.8255L34.3578 11.5209L31.6729 5.47987L30.9875 5.78448L30.3022 6.08908L32.9871 12.1301L33.6724 11.8255ZM30 17.25V18H32.85V17.25V16.5H30V17.25ZM33.75 12.191H34.5C34.5 11.9601 34.4516 11.7318 34.3578 11.5209L33.6724 11.8255L32.9871 12.1301C32.9956 12.1492 33 12.17 33 12.191H33.75ZM30.1651 5.25V6C30.2244 6 30.2781 6.03491 30.3022 6.08908L30.9875 5.78448L31.6729 5.47987C31.4081 4.88401 30.8172 4.5 30.1651 4.5V5.25ZM33.75 16.35H33C33 16.4328 32.9328 16.5 32.85 16.5V17.25V18C33.7613 18 34.5 17.2613 34.5 16.35H33.75ZM21.75 17.25V18H23.25V17.25V16.5H21.75V17.25Z" fill="white"/>
</svg>
