<svg width="32" height="32" viewBox="0 0 32 32" fill="none" xmlns="http://www.w3.org/2000/svg">
<path d="M8.25 6.75H23.25M8.25 11.25H23.25M11.25 23.25H20.25M2.25 15.75H1.65C1.15294 15.75 0.75 16.1529 0.75 16.65V29.85C0.75 30.3471 1.15294 30.75 1.65 30.75H29.85C30.3471 30.75 30.75 30.3471 30.75 29.85V16.65C30.75 16.1529 30.3471 15.75 29.85 15.75H29.25M2.25 15.75V1.65C2.25 1.15294 2.65294 0.75 3.15 0.75H28.35C28.8471 0.75 29.25 1.15294 29.25 1.65V15.75M2.25 15.75H29.25" stroke="white" stroke-width="1.5" stroke-linecap="round"/>
</svg>
