<svg width="20" height="20" viewBox="0 0 20 20" fill="none" xmlns="http://www.w3.org/2000/svg">
<path d="M1.75 0.75H17.7501C18.3024 0.75 18.7501 1.19764 18.7501 1.74987L18.7503 3.33569C18.7504 3.60097 18.645 3.85538 18.4574 4.04295L12.0429 10.4571C11.8554 10.6446 11.75 10.899 11.75 11.1642L11.75 17.4692C11.75 18.1198 11.1386 18.5972 10.5075 18.4394L8.50746 17.9394C8.0623 17.8281 7.75 17.4281 7.75 16.9692L7.75 11.1642C7.75 10.899 7.64465 10.6446 7.45711 10.4571L1.04289 4.04289C0.855356 3.85536 0.75 3.601 0.75 3.33579V1.75C0.75 1.19772 1.19772 0.75 1.75 0.75Z" stroke="#0F172A" stroke-width="1.5" stroke-linecap="round" stroke-linejoin="round"/>
</svg>
