<svg width="29" height="29" viewBox="0 0 29 29" fill="none" xmlns="http://www.w3.org/2000/svg">
<path d="M14.25 12.75H21.75M14.25 6.75H21.75M8.25 18.75V1.65C8.25 1.15294 8.65295 0.75 9.15 0.75H26.85C27.3471 0.75 27.75 1.15294 27.75 1.65V21.75C27.75 25.0637 25.0637 27.75 21.75 27.75M8.25 18.75H3.75C2.09315 18.75 0.75 20.0931 0.75 21.75V23.25C0.75 25.7353 2.76472 27.75 5.25 27.75H21.75M8.25 18.75H14.85C15.3471 18.75 15.7546 19.1503 15.7947 19.6457C15.9788 21.9221 16.9218 27.75 21.75 27.75" stroke="white" stroke-width="1.5" stroke-linecap="round" stroke-linejoin="round"/>
</svg>
