<svg width="32" height="25" viewBox="0 0 32 25" fill="none" xmlns="http://www.w3.org/2000/svg">
<path d="M30.75 11.1429V21C30.75 22.6569 29.4069 24 27.75 24H8.25C6.59315 24 5.25 22.6569 5.25 21V18.75M30.75 11.1429V9C30.75 7.34314 29.4069 6 27.75 6H26.25M30.75 11.1429H26.25M26.25 6V15.75C26.25 17.4069 24.9069 18.75 23.25 18.75H3.75C2.09315 18.75 0.75 17.4069 0.75 15.75V3.75C0.75 2.09315 2.09315 0.75 3.75 0.75H23.25C24.9069 0.75 26.25 2.09315 26.25 3.75V6ZM26.25 6H6" stroke="white" stroke-width="1.5" stroke-linecap="round" stroke-linejoin="round"/>
</svg>
