<svg width="20" height="22" viewBox="0 0 20 22" fill="none" xmlns="http://www.w3.org/2000/svg">
<path d="M13.2 5.2002L6.20001 9.2002M6.20001 12.2002L13.2 16.2002M18.7 17.7002C18.7 19.357 17.3569 20.7002 15.7 20.7002C14.0432 20.7002 12.7 19.357 12.7 17.7002C12.7 16.0433 14.0432 14.7002 15.7 14.7002C17.3569 14.7002 18.7 16.0433 18.7 17.7002ZM18.7 3.7002C18.7 5.35705 17.3569 6.7002 15.7 6.7002C14.0432 6.7002 12.7 5.35705 12.7 3.7002C12.7 2.04334 14.0432 0.700195 15.7 0.700195C17.3569 0.700195 18.7 2.04334 18.7 3.7002ZM6.70001 10.7002C6.70001 12.357 5.35687 13.7002 3.70001 13.7002C2.04316 13.7002 0.700012 12.357 0.700012 10.7002C0.700012 9.04334 2.04316 7.7002 3.70001 7.7002C5.35687 7.7002 6.70001 9.04334 6.70001 10.7002Z" stroke="white" stroke-width="1.4" stroke-linejoin="round"/>
</svg>
