<svg width="53" height="50" viewBox="0 0 53 50" fill="none" xmlns="http://www.w3.org/2000/svg">
<path d="M45.0833 37.1669C48.5687 35.8016 52.0833 32.6907 52.0833 26.4167C52.0833 17.0833 44.3056 14.75 40.4167 14.75C40.4167 10.0833 40.4167 0.75 26.4167 0.75C12.4167 0.75 12.4167 10.0833 12.4167 14.75C8.52778 14.75 0.75 17.0833 0.75 26.4167C0.75 32.6907 4.26465 35.8016 7.75 37.1669M36.7306 41.554L32.6058 45.6788C28.9609 49.3237 23.0514 49.3237 19.4065 45.6788L18.5815 44.8538M36.7306 41.554L35.9057 47.3287L30.9559 42.3789L36.7306 41.554ZM16.1047 35.5205L20.2295 31.3957C23.8744 27.7508 29.7839 27.7508 33.4288 31.3957L34.2538 32.2207M16.1047 35.5205L16.9296 29.7458L21.8794 34.6956L16.1047 35.5205Z" stroke="white" stroke-width="1.5" stroke-linecap="round" stroke-linejoin="round"/>
</svg>
