<svg width="49" height="46" viewBox="0 0 49 46" fill="none" xmlns="http://www.w3.org/2000/svg">
<path d="M24.0833 28.75C31.8153 28.75 38.0833 22.482 38.0833 14.75C38.0833 7.01801 31.8153 0.75 24.0833 0.75C16.3513 0.75 10.0833 7.01801 10.0833 14.75C10.0833 22.482 16.3513 28.75 24.0833 28.75Z" stroke="white" stroke-width="1.5" stroke-linecap="round" stroke-linejoin="round"/>
<path d="M33.4167 45.0833C41.1487 45.0833 47.4167 38.8153 47.4167 31.0833C47.4167 23.3513 41.1487 17.0833 33.4167 17.0833C25.6847 17.0833 19.4167 23.3513 19.4167 31.0833C19.4167 38.8153 25.6847 45.0833 33.4167 45.0833Z" stroke="white" stroke-width="1.5" stroke-linecap="round" stroke-linejoin="round"/>
<path d="M14.75 45.0833C22.482 45.0833 28.75 38.8153 28.75 31.0833C28.75 23.3513 22.482 17.0833 14.75 17.0833C7.01801 17.0833 0.75 23.3513 0.75 31.0833C0.75 38.8153 7.01801 45.0833 14.75 45.0833Z" stroke="white" stroke-width="1.5" stroke-linecap="round" stroke-linejoin="round"/>
</svg>
